<svg width="140" height="24" viewBox="0 0 140 24" fill="none" xmlns="http://www.w3.org/2000/svg">
<path fill-rule="evenodd" clip-rule="evenodd" d="M0 19.2V4.8C0 2.14903 2.14903 0 4.8 0H19.2V4.8H24V19.2C24 21.851 21.851 24 19.2 24H4.8V19.2H0ZM16.8 7.2H7.2V16.8H16.8V7.2Z" fill="#2BB32A"/>
<path d="M44.76 21.2C43.0933 21.2 41.66 20.9 40.46 20.3C39.2733 19.7 38.36 18.84 37.72 17.72C37.0933 16.6 36.78 15.26 36.78 13.7C36.78 12.14 37.0933 10.8 37.72 9.68C38.3467 8.56 39.24 7.7 40.4 7.1C41.5733 6.5 42.9733 6.2 44.6 6.2C45.4933 6.2 46.34 6.3 47.14 6.5C47.94 6.68667 48.6533 6.96667 49.28 7.34L48.66 9.68C48.1133 9.34667 47.48 9.09333 46.76 8.92C46.04 8.73333 45.32 8.64 44.6 8.64C43.5733 8.64 42.7 8.84 41.98 9.24C41.26 9.62667 40.7067 10.2 40.32 10.96C39.9333 11.7067 39.74 12.62 39.74 13.7C39.74 14.78 39.9333 15.7 40.32 16.46C40.7067 17.2067 41.2733 17.78 42.02 18.18C42.7667 18.5667 43.68 18.76 44.76 18.76C45.3067 18.76 45.8267 18.7067 46.32 18.6C46.8133 18.4933 47.2667 18.3333 47.68 18.12L47.3 18.96V14.76H42.98V12.42H50.1V20.04C49.3933 20.4133 48.5667 20.7 47.62 20.9C46.6733 21.1 45.72 21.2 44.76 21.2ZM52.1706 21V10.6H54.8106L54.8306 12.54H54.8906C55.2373 12.0733 55.644 11.6867 56.1106 11.38C56.5906 11.06 57.1106 10.82 57.6706 10.66C58.244 10.4867 58.8306 10.4 59.4306 10.4V12.74C58.604 12.74 57.8506 12.8933 57.1706 13.2C56.4906 13.5067 55.9506 13.9267 55.5506 14.46C55.1506 14.98 54.9506 15.56 54.9506 16.2V21H52.1706ZM65.1286 21.2C63.2619 21.2 61.8219 20.7333 60.8086 19.8C59.8086 18.8667 59.3086 17.5333 59.3086 15.8C59.3086 14.12 59.7686 12.8 60.6886 11.84C61.6086 10.88 62.8753 10.4 64.4886 10.4C66.0486 10.4 67.2486 10.8533 68.0886 11.76C68.9419 12.6667 69.3686 13.9533 69.3686 15.62C69.3686 15.8067 69.3619 16.02 69.3486 16.26C69.3486 16.5 69.3419 16.68 69.3286 16.8H60.8486V14.9H67.1886L66.8086 15.48C66.8086 14.44 66.6153 13.6667 66.2286 13.16C65.8553 12.6533 65.2753 12.4 64.4886 12.4C63.6619 12.4 63.0419 12.6667 62.6286 13.2C62.2153 13.72 62.0086 14.5 62.0086 15.54V16.34C62.0086 17.2733 62.2553 17.96 62.7486 18.4C63.2419 18.84 63.9953 19.06 65.0086 19.06C65.5819 19.06 66.1886 19.0067 66.8286 18.9C67.4686 18.7933 68.0353 18.6467 68.5286 18.46L68.8486 20.56C68.3553 20.76 67.7753 20.9133 67.1086 21.02C66.4553 21.14 65.7953 21.2 65.1286 21.2ZM76.0716 21.2C74.2049 21.2 72.7649 20.7333 71.7516 19.8C70.7516 18.8667 70.2516 17.5333 70.2516 15.8C70.2516 14.12 70.7116 12.8 71.6316 11.84C72.5516 10.88 73.8182 10.4 75.4316 10.4C76.9916 10.4 78.1916 10.8533 79.0316 11.76C79.8849 12.6667 80.3116 13.9533 80.3116 15.62C80.3116 15.8067 80.3049 16.02 80.2916 16.26C80.2916 16.5 80.2849 16.68 80.2716 16.8H71.7916V14.9H78.1316L77.7516 15.48C77.7516 14.44 77.5582 13.6667 77.1716 13.16C76.7982 12.6533 76.2182 12.4 75.4316 12.4C74.6049 12.4 73.9849 12.6667 73.5716 13.2C73.1582 13.72 72.9516 14.5 72.9516 15.54V16.34C72.9516 17.2733 73.1982 17.96 73.6916 18.4C74.1849 18.84 74.9382 19.06 75.9516 19.06C76.5249 19.06 77.1316 19.0067 77.7716 18.9C78.4116 18.7933 78.9782 18.6467 79.4716 18.46L79.7916 20.56C79.2982 20.76 78.7182 20.9133 78.0516 21.02C77.3982 21.14 76.7382 21.2 76.0716 21.2ZM81.7769 21V10.6H84.3969L84.4169 11.82H84.4569C84.8835 11.34 85.3769 10.9867 85.9369 10.76C86.5102 10.52 87.1702 10.4 87.9169 10.4C89.1702 10.4 90.0902 10.74 90.6769 11.42C91.2769 12.0867 91.5769 13.1467 91.5769 14.6V21H88.8369V15.14C88.8369 14.2733 88.6902 13.6467 88.3969 13.26C88.1035 12.86 87.6369 12.66 86.9969 12.66C86.5169 12.66 86.0902 12.76 85.7169 12.96C85.3435 13.1467 85.0502 13.4067 84.8369 13.74C84.6369 14.06 84.5369 14.44 84.5369 14.88V21H81.7769ZM93.6416 21V6.4H98.3616C100.322 6.4 101.788 6.7 102.762 7.3C103.748 7.88667 104.242 8.77333 104.242 9.96C104.242 10.84 103.988 11.5667 103.482 12.14C102.988 12.7 102.295 13.0667 101.402 13.24V13.28C102.508 13.44 103.342 13.8267 103.902 14.44C104.475 15.04 104.762 15.8467 104.762 16.86C104.762 18.2333 104.235 19.2667 103.182 19.96C102.142 20.6533 100.582 21 98.5016 21H93.6416ZM98.5016 18.66C99.6749 18.66 100.535 18.4933 101.082 18.16C101.628 17.8267 101.902 17.3067 101.902 16.6C101.902 15.88 101.628 15.36 101.082 15.04C100.535 14.7067 99.6749 14.54 98.5016 14.54H95.0416V12.26H98.5016C99.5282 12.26 100.275 12.12 100.742 11.84C101.208 11.5467 101.442 11.0867 101.442 10.46C101.442 9.84667 101.208 9.40667 100.742 9.14C100.288 8.87333 99.5416 8.74 98.5016 8.74H96.4416V18.66H98.5016ZM108.76 21.2C107.734 21.2 106.92 20.9133 106.32 20.34C105.734 19.7667 105.44 19 105.44 18.04C105.44 16.84 105.907 15.9133 106.84 15.26C107.787 14.6067 109.127 14.28 110.86 14.28H112.24C112.24 13.8133 112.18 13.4533 112.06 13.2C111.954 12.9467 111.76 12.7733 111.48 12.68C111.214 12.5733 110.827 12.52 110.32 12.52C109.654 12.52 108.96 12.5933 108.24 12.74C107.52 12.8733 106.84 13.0667 106.2 13.32L105.86 11.2C106.554 10.9467 107.32 10.7533 108.16 10.62C109.014 10.4733 109.86 10.4 110.7 10.4C111.767 10.4 112.607 10.5267 113.22 10.78C113.834 11.0333 114.28 11.46 114.56 12.06C114.84 12.6467 114.98 13.44 114.98 14.44V21H112.36L112.32 19.8H112.3C111.927 20.2267 111.414 20.5667 110.76 20.82C110.107 21.0733 109.44 21.2 108.76 21.2ZM109.76 19.12C110.227 19.12 110.647 19.04 111.02 18.88C111.394 18.72 111.687 18.5 111.9 18.22C112.127 17.9267 112.24 17.6067 112.24 17.26V16.08H111.26C110.18 16.08 109.374 16.22 108.84 16.5C108.307 16.7667 108.04 17.1867 108.04 17.76C108.04 18.1867 108.187 18.52 108.48 18.76C108.787 19 109.214 19.12 109.76 19.12ZM116.871 21V10.6H119.491L119.511 11.82H119.551C119.978 11.34 120.471 10.9867 121.031 10.76C121.605 10.52 122.265 10.4 123.011 10.4C124.265 10.4 125.185 10.74 125.771 11.42C126.371 12.0867 126.671 13.1467 126.671 14.6V21H123.931V15.14C123.931 14.2733 123.785 13.6467 123.491 13.26C123.198 12.86 122.731 12.66 122.091 12.66C121.611 12.66 121.185 12.76 120.811 12.96C120.438 13.1467 120.145 13.4067 119.931 13.74C119.731 14.06 119.631 14.44 119.631 14.88V21H116.871ZM128.576 21V6.4H131.336V14.76H131.376L135.316 10.6H138.676L133.696 15.6L138.856 21H135.496L131.376 16.44H131.336V21H128.576Z" fill="white"/>
</svg>
